<svg width="589" height="284" viewBox="0 0 589 284" fill="none" xmlns="http://www.w3.org/2000/svg">
<path d="M50.8 31.4C44.4 31.4 39.7333 33 36.8 36.2C33.0667 37.8 30.4 42.0667 28.8 49L1.37091e-06 47C1.06667 39 2.93334 32.0667 5.6 26.2C8.53334 20.0667 12.6667 14.6 18 9.79998C27.3333 3.39999 39.3333 0.199989 54 0.199989H141.2C155.067 0.199989 167.467 2.99999 178.4 8.59998C189.333 14.2 197.867 22.0667 204 32.2C210.133 42.0666 213.2 53.4 213.2 66.2C213.2 68.0667 212.933 71.4 212.4 76.2C210.533 88.4667 206.4 99.2667 200 108.6C193.6 117.667 185.467 124.733 175.6 129.8C172.4 130.867 167.2 132.067 160 133.4C162.933 133.4 167.067 134.467 172.4 136.6C177.733 138.467 182.8 141.133 187.6 144.6C193.733 148.067 198.667 153.667 202.4 161.4C206.133 168.867 208 178.333 208 189.8C208 194.6 207.6 199.8 206.8 205.4C203.333 231.533 191.467 251 171.2 263.8C151.2 276.6 125.733 283 94.8 283H81.6C67.4667 283 54.2667 282.333 42 281L17.6 278.2L50.8 31.4ZM97.2 252.6C145.467 252.6 171.867 235.667 176.4 201.8C176.667 199.933 176.8 197.267 176.8 193.8C176.8 179.667 172 168.733 162.4 161C152.8 153 140.533 149 125.6 149H88.4L92.4 119.4L125.2 119C140.667 119 153.2 114.6 162.8 105.8C173.2 98.6 179.333 87.6667 181.2 73C181.467 71.1333 181.6 68.6 181.6 65.4C181.6 54.4666 178.133 45.9333 171.2 39.8C164.533 33.6666 155.333 30.6 143.6 30.6H82L52.4 250.6C70 251.933 84.9333 252.6 97.2 252.6ZM259.506 283.8C250.706 283.8 242.973 280.867 236.306 275C229.906 269.133 226.173 262.333 225.106 254.6L253.106 244.6C253.373 245.4 253.906 246.867 254.706 249C255.773 250.867 256.573 252.067 257.106 252.6C257.906 252.867 259.106 253 260.706 253C264.44 253 267.24 251 269.106 247L351.506 4.59998H380.306L427.106 215L429.506 233.4L437.106 215L540.306 4.59998H569.906L588.306 279.4H556.706L543.106 64.2L543.506 57.8L541.906 64.2L438.306 279.4H410.306L364.306 66.6L363.906 57.8L361.906 66.6L299.106 253.4C296.173 261.933 290.973 269.133 283.506 275C276.04 280.867 268.04 283.8 259.506 283.8Z" fill="white"/>
</svg>
